<?xml version="1.0" encoding="UTF-8"?>
<!DOCTYPE svg PUBLIC "-//W3C//DTD SVG 1.1//EN" "http://www.w3.org/Graphics/SVG/1.1/DTD/svg11.dtd">
<!-- Creator: CorelDRAW -->
<svg xmlns="http://www.w3.org/2000/svg" xml:space="preserve" width="32.359mm" height="23.2488mm" version="1.1" style="shape-rendering:geometricPrecision; text-rendering:geometricPrecision; image-rendering:optimizeQuality; fill-rule:evenodd; clip-rule:evenodd"
viewBox="0 0 522.64 375.5"
 xmlns:xlink="http://www.w3.org/1999/xlink"
 xmlns:xodm="http://www.corel.com/coreldraw/odm/2003">
 <defs>
  <style type="text/css">
   <![CDATA[
    .fil2 {fill:none}
    .fil0 {fill:none}
    .fil3 {fill:none}
    .fil1 {fill:white;fill-opacity:0.501961}
    .fil4 {fill:white;fill-rule:nonzero;fill-opacity:0.501961}
   ]]>
  </style>
    <clipPath id="id0">
     <path d="M26.93 335.41l131.05 0 0 40.09 -131.05 0 0 -40.09zm0 0z"/>
    </clipPath>
    <clipPath id="id1">
     <path d="M26.93 335.41l131.05 0 0 40.09 -131.05 0 0 -40.09zm0 0z"/>
    </clipPath>
    <clipPath id="id2">
     <path d="M123.79 0l178.05 0 1.26 1.82 -0.26 0.34c-4.44,2.77 -8.48,6.19 -13.28,9.79 -3.01,1.59 -5.95,3.51 -8.71,5.72 -1.16,0.61 -2.31,1.29 -3.44,2.07 -4.07,2.8 -17.71,7.74 -22.72,19.38l-130.9 0 0 -39.13zm258.91 36.41c-0.56,0.9 -1.05,1.8 -1.47,2.72l-18.55 0c0.14,-0.93 0.25,-1.86 0.32,-2.8l19.7 0.08zm138.33 -36.41l1.6 0 0 8.59c-0.23,-2.93 -0.7,-5.85 -1.6,-8.59z"/>
    </clipPath>
    <clipPath id="id3">
     <path d="M-0 33.43l258.16 0c-4.51,5.59 -6.33,12.51 -4.75,19.49 -17.66,-9.94 -37.08,-12.63 -52.35,4.19 -16.19,17.82 -10.96,45.8 8.45,56.87l11.19 13.42c-0.13,1.5 -0.2,3.05 -0.2,4.64l0.81 21.44c0.27,2.15 0.61,4.29 1.02,6.42 0.27,7.16 1.62,14.16 4.59,20.12 2.04,6.4 4.86,12.53 7.5,18.78l15.15 29.16c0.97,2.49 2.17,4.77 3.56,6.84l5.43 10.46c1.44,4.7 3.59,8.37 6.4,12.32 4.14,7.98 8.17,16.2 12.8,23.9 5.3,10.25 9.92,16.19 17.4,24.86 1.37,2.67 2.93,5.04 4.66,7.14l1.43 2.2c0.89,2.2 1.99,4.37 3.34,6.46 2.06,3.71 7.3,11.95 12.3,18.97l-316.89 0 0 -307.68zm363.01 2.9l19.7 0.08c-2.61,4.19 -3.58,8.48 -3.05,13.39 -4.65,2.81 -8.38,7.45 -10.04,13.91 -0.59,2.31 -6.24,11.1 -4.22,20.49l-0.08 0.13c-2.04,0.94 -3.89,2.2 -5.52,3.76l-1.05 0.14c-5.22,-8.34 -13.69,-14.61 -23.24,-17.13l6.61 -4.91c13.37,-6.14 19.98,-17.78 20.89,-29.86zm53.57 35.05c3.42,-0.4 6.69,-1.36 9.51,-2.81 2.61,-0.01 5.37,-0.42 8.24,-1.31 10.71,-3.33 11.47,-10.55 14.86,-11.7l7.16 -2.15 -4.98 24.57c-11.55,-0.2 -23.93,5.41 -31.4,14.29 -1.08,-6.15 -2.9,-12.39 -3.21,-18.77 -0.04,-0.72 -0.1,-1.42 -0.17,-2.11z"/>
    </clipPath>
    <clipPath id="id4">
     <path d="M239.07 5.13l263.28 0 0 365.13 -263.28 0 0 -365.13zm0 0z"/>
    </clipPath>
    <clipPath id="id5">
     <path d="M239.07 5.13l263.28 0 0 365.13 -263.28 0 0 -365.13zm0 0z"/>
    </clipPath>
 </defs>
 <g id="Layer_x0020_1">
  <metadata id="CorelCorpID_0Corel-Layer"/>
  <g id="_1861854921200">
   <g style="clip-path:url(#id0)">
    <polygon class="fil0" points="26.93,335.41 157.98,335.41 157.98,375.5 26.93,375.5 "/>
   </g>
   <g style="clip-path:url(#id1)">
    <g>
     <path id="_1" class="fil1" d="M43.34 377.37l100.34 0c6.16,0 11.57,-5.41 11.57,-11.57l0 -21.61c0,-2.31 0,-3.87 -0.78,-5.41 -10.04,6.95 -16.98,8.5 -27.02,6.95 -7.7,0 -87.96,1.56 -96.46,-0.76 0,10.02 -3.85,32.41 12.35,32.41zm0 0z"/>
    </g>
   </g>
   <path class="fil2" d="M26.93 335.41l131.05 0 0 40.09 -131.05 0 0 -40.09zm0 0z"/>
   <path class="fil1" d="M155.24 231.52c0.76,0.76 0.76,1.54 0.76,3.07 0,7.72 -6.16,13.89 -13.89,13.89 -8.48,0 -14.67,-6.16 -14.67,-13.89 0,-4.63 2.34,-8.48 5.41,-10.79l22.39 7.72zm0 0z"/>
   <path class="fil1" d="M89.65 209.13c-0.78,0.78 -1.56,1.54 -1.56,3.09 0,2.31 2.31,4.63 5.41,4.63 2.31,0 4.63,-2.31 4.63,-4.63l8.48 2.31c-1.53,6.16 -6.94,10.8 -13.11,10.8 -7.72,0 -13.89,-6.17 -13.89,-13.11 0,-2.31 0.76,-4.63 1.54,-6.19l8.5 3.09zm0 0z"/>
   <path class="fil1" d="M119.74 219.16c-3.09,4.63 -4.63,10.04 -4.63,15.42 0,13.89 12.33,26.24 27,26.24 13.89,0 25.46,-10.79 26.24,-24.68l-8.48 -3.09c0,0.78 0,0.78 0,1.54 0,9.26 -8.5,17.76 -17.76,17.76 -10.02,0 -18.52,-8.5 -18.52,-17.76 0,-4.63 1.54,-9.26 4.63,-12.33l-8.48 -3.09zm0 0z"/>
   <path class="fil1" d="M68.8 202.18c-1.54,3.09 -2.32,6.94 -2.32,10.79 0,14.67 12.35,26.24 27.02,26.24 12.35,0 23.15,-8.48 25.46,-20.05l-7.72 -3.09c-1.54,8.5 -9.26,14.67 -17.74,14.67 -10.04,0 -18.52,-7.72 -18.52,-17.76 0,-3.07 0.76,-6.16 2.32,-8.48l-8.5 -2.31zm0 0z"/>
   <g>
   </g>
   <g style="clip-path:url(#id2)">
    <g>
     <path class="fil1" d="M325.02 0c89.52,0 179.79,6.94 188.29,20.83 2.31,3.85 4.63,8.48 7.7,13.89l-37.79 0c-11.6,-3.85 -30.87,-7.72 -64.83,-10.04 -28.56,-1.53 -60.96,-3.07 -93.37,-3.07 -32.43,0 -64.83,1.54 -93.39,3.07 -33.94,2.32 -53.24,6.19 -64.81,10.04l-38.59 0c3.09,-5.41 6.19,-10.04 7.72,-13.89 8.48,-13.89 98.77,-20.83 189.07,-20.83zm0 0z"/>
    </g>
   </g>
   <path class="fil2" d="M123.79 0l178.05 0 1.26 1.82 -0.26 0.34c-4.44,2.77 -8.48,6.19 -13.28,9.79 -3.01,1.59 -5.95,3.51 -8.71,5.72 -1.16,0.61 -2.31,1.29 -3.44,2.07 -4.07,2.8 -17.71,7.74 -22.72,19.38l-130.9 0 0 -39.13zm258.91 36.41c-0.56,0.9 -1.05,1.8 -1.47,2.72l-18.55 0c0.14,-0.93 0.25,-1.86 0.32,-2.8l19.7 0.08zm138.33 -36.41l1.6 0 0 8.59c-0.23,-2.93 -0.7,-5.85 -1.6,-8.59z"/>
   <g>
   </g>
   <g style="clip-path:url(#id3)">
    <g>
     <path class="fil1" d="M644.5 84.11c-4.63,9.26 -21.61,12.35 -31.63,14.67 -27.02,6.16 -39.37,8.48 -37.82,23.15l0.76 3.09 2.31 0.76c0.78,0 35.5,9.28 42.44,40.91 2.31,11.57 4.63,36.28 5.41,60.96l-36.28 0c5.41,-13.11 3.87,-24.68 3.87,-25.46 -0.78,-3.85 -1.56,-6.16 -5.41,-4.63l-8.48 3.09 -104.96 35.5c-0.78,0.76 -0.78,0.76 -0.78,1.54 0,1.53 0,3.09 1.56,6.16 1.54,2.31 13.89,22.39 46.3,22.39 8.5,0 18.52,-1.54 28.56,-4.63 20.83,-6.19 32.4,-17.76 37.81,-29.34l37.82 0c1.53,42.44 1.53,86.45 1.53,87.2 0,6.94 -2.31,18.52 -10.79,19.3 -25.46,2.31 -67.15,0.78 -91.05,0 -13.13,0 -14.67,1.54 -26.24,-7.72 -54.02,5.41 -109.59,8.5 -163.61,8.5l-7.72 0 0 -36.28 137.37 0c4.63,0 4.63,-6.94 0,-6.94l-137.37 0 0 -6.95 137.37 0c4.63,0 4.63,-6.94 0,-6.94l-137.37 0 0 -14.67 135.84 0 -15.45 -24.68c-31.63,5.39 -77.94,7.7 -123.46,7.7 -46.32,0 -92.61,-2.31 -123.48,-7.7l-15.42 24.68 135.81 0 0 14.67 -138.13 0c-4.63,0 -4.63,6.94 0,6.94l138.13 0 0 6.95 -138.13 0c-4.63,0 -4.63,6.94 0,6.94l138.13 0 0 36.28 -7.72 0c-54.02,0 -110.35,-3.09 -163.59,-8.5 -12.35,9.26 -13.89,7.72 -27.02,7.72 -23.15,0.78 -65.59,2.31 -91.05,0 -8.5,-0.78 -10.82,-12.35 -10.82,-19.3 0,-0.76 0,-44.76 1.56,-87.2l38.57 0c5.41,11.57 16.2,23.15 37.06,29.34 10.02,3.09 20.06,4.63 28.53,4.63 33.18,0 44.78,-20.08 46.32,-22.39 1.54,-3.07 1.54,-4.63 1.54,-6.16 0,-0.78 0,-0.78 -0.76,-1.54l-104.96 -35.5 -8.48 -3.09c-3.87,-1.54 -4.63,0.78 -5.41,4.63 0,0.78 -0.78,12.35 3.85,25.46l-36.26 0c1.54,-24.68 3.07,-49.39 5.39,-60.96 6.94,-31.63 41.69,-40.91 42.44,-40.91l3.09 -0.76 0 -3.09c1.54,-14.67 -10.79,-16.98 -37.82,-23.15 -10.04,-2.31 -26.24,-5.41 -31.63,-14.67 -4.63,-9.26 0.76,-19.3 12.33,-19.3 14.67,0 30.11,3.09 45.54,3.09 10.04,0 6.17,18.52 6.17,26.24 0,11.57 6.94,17.74 17.76,20.83 13.11,-26.24 26.24,-51.7 40.13,-77.16l31.63 0c-3.85,2.31 -6.16,4.63 -6.94,6.16 -10.8,18.52 -33.94,64.06 -40.89,77.17 -1.56,2.31 0.76,5.41 3.85,5.41l421.35 0c3.09,0 4.63,-3.09 3.09,-5.41 -6.16,-13.11 -29.33,-58.65 -40.13,-77.17 -1.54,-1.54 -3.09,-3.85 -7.72,-6.16l31.65 0c13.89,25.46 27,50.92 40.13,77.16 10.79,-3.09 18.52,-9.26 18.52,-20.83 0,-7.72 -4.63,-26.24 5.41,-26.24 16.2,0 31.63,-3.09 46.29,-3.09 11.57,0 16.2,10.04 11.57,19.3zm0 0z"/>
    </g>
   </g>
   <path class="fil2" d="M-0 33.43l258.16 0c-4.51,5.59 -6.33,12.51 -4.75,19.49 -17.66,-9.94 -37.08,-12.63 -52.35,4.19 -16.19,17.82 -10.96,45.8 8.45,56.87l11.19 13.42c-0.13,1.5 -0.2,3.05 -0.2,4.64l0.81 21.44c0.27,2.15 0.61,4.29 1.02,6.42 0.27,7.16 1.62,14.16 4.59,20.12 2.04,6.4 4.86,12.53 7.5,18.78l15.15 29.16c0.97,2.49 2.17,4.77 3.56,6.84l5.43 10.46c1.44,4.7 3.59,8.37 6.4,12.32 4.14,7.98 8.17,16.2 12.8,23.9 5.3,10.25 9.92,16.19 17.4,24.86 1.37,2.67 2.93,5.04 4.66,7.14l1.43 2.2c0.89,2.2 1.99,4.37 3.34,6.46 2.06,3.71 7.3,11.95 12.3,18.97l-316.89 0 0 -307.68zm363.01 2.9l19.7 0.08c-2.61,4.19 -3.58,8.48 -3.05,13.39 -4.65,2.81 -8.38,7.45 -10.04,13.91 -0.59,2.31 -6.24,11.1 -4.22,20.49l-0.08 0.13c-2.04,0.94 -3.89,2.2 -5.52,3.76l-1.05 0.14c-5.22,-8.34 -13.69,-14.61 -23.24,-17.13l6.61 -4.91c13.37,-6.14 19.98,-17.78 20.89,-29.86zm53.57 35.05c3.42,-0.4 6.69,-1.36 9.51,-2.81 2.61,-0.01 5.37,-0.42 8.24,-1.31 10.71,-3.33 11.47,-10.55 14.86,-11.7l7.16 -2.15 -4.98 24.57c-11.55,-0.2 -23.93,5.41 -31.4,14.29 -1.08,-6.15 -2.9,-12.39 -3.21,-18.77 -0.04,-0.72 -0.1,-1.42 -0.17,-2.11z"/>
   <g style="clip-path:url(#id4)">
    <polygon class="fil3" points="239.07,5.13 502.35,5.13 502.35,370.26 239.07,370.26 "/>
   </g>
   <g style="clip-path:url(#id5)">
    <g>
     <path id="_1_0" class="fil4" d="M370.71 5.13c-72.67,0 -131.64,57.22 -131.64,127.8 0,95.85 131.64,237.34 131.64,237.34 0,0 131.64,-141.49 131.64,-237.34 0,-70.57 -58.97,-127.8 -131.64,-127.8zm0 173.42c-25.96,0 -47.02,-20.44 -47.02,-45.63 0,-25.2 21.06,-45.64 47.02,-45.64 25.96,0 47.02,20.44 47.02,45.64 0,25.18 -21.06,45.63 -47.02,45.63zm0 0z"/>
    </g>
   </g>
   <path class="fil2" d="M239.07 5.13l263.28 0 0 365.13 -263.28 0 0 -365.13zm0 0z"/>
  </g>
 </g>
</svg>
