<?xml version="1.0" encoding="UTF-8"?>
<!DOCTYPE svg PUBLIC "-//W3C//DTD SVG 1.1//EN" "http://www.w3.org/Graphics/SVG/1.1/DTD/svg11.dtd">
<!-- Creator: CorelDRAW -->
<svg xmlns="http://www.w3.org/2000/svg" xml:space="preserve" width="34.8054mm" height="27.8936mm" version="1.1" style="shape-rendering:geometricPrecision; text-rendering:geometricPrecision; image-rendering:optimizeQuality; fill-rule:evenodd; clip-rule:evenodd"
viewBox="0 0 604.72 484.63"
 xmlns:xlink="http://www.w3.org/1999/xlink"
 xmlns:xodm="http://www.corel.com/coreldraw/odm/2003">
 <defs>
  <style type="text/css">
   <![CDATA[
    .fil1 {fill:none}
    .fil4 {fill:none}
    .fil2 {fill:none}
    .fil3 {fill:white;fill-opacity:0.501961}
    .fil0 {fill:white;fill-rule:nonzero;fill-opacity:0.501961}
   ]]>
  </style>
    <clipPath id="id0">
     <path d="M213.1 159.94l196.26 -159.94 195.35 159.21 -196.26 159.95 -195.36 -159.21zm0 0z"/>
    </clipPath>
    <clipPath id="id1">
     <path d="M240.58 342.1l167.88 -136.82 168.78 137.55 -167.88 136.82 -168.78 -137.55zm0 0z"/>
    </clipPath>
    <clipPath id="id2">
     <path d="M240.58 342.1l167.88 -136.82 168.78 137.55 -167.88 136.82 -168.78 -137.55zm0 0z"/>
    </clipPath>
     <clipPath id="id3">
      <path d="M28.97 441.51l140.97 0 0 43.12 -140.97 0 0 -43.12zm0 0z"/>
     </clipPath>
     <clipPath id="id4">
      <path d="M133.17 80.7l146.6 0c1.66,1.05 3.47,2.02 5.28,2.96 0.24,0.87 0.36,1.77 0.41,2.86 -1.17,3.54 -2.12,7.64 -2.7,11.34 -2.23,7.1 -1.99,17.76 0.44,24.93l-150.03 0 0 -42.09zm241.43 39.59c-0.26,0.79 -0.5,1.62 -0.7,2.5l-36.89 0 0.42 -1.13c12.4,0 18.73,0.73 30.65,-1.24 1.05,-0.17 3.43,-0.18 6.52,-0.13z"/>
     </clipPath>
     <clipPath id="id5">
      <path d="M133.17 80.7l146.6 0c1.66,1.05 3.47,2.02 5.28,2.96 0.24,0.87 0.36,1.77 0.41,2.86 -1.17,3.54 -2.12,7.64 -2.7,11.34 -2.23,7.1 -1.99,17.76 0.44,24.93l-150.03 0 0 -42.09zm241.43 39.59c-0.26,0.79 -0.5,1.62 -0.7,2.5l-36.89 0 0.42 -1.13c12.4,0 18.73,0.73 30.65,-1.24 1.05,-0.17 3.43,-0.18 6.52,-0.13z"/>
     </clipPath>
     <clipPath id="id6">
      <path d="M-0 116.66l281.73 0c0.8,6.14 4.06,13.83 8.79,18.33 17.94,18.87 43.34,8.66 45.75,-10.54 0.44,-0.89 0.83,-1.82 1.16,-2.78 12.4,0 18.72,0.73 30.65,-1.24 1.05,-0.17 3.43,-0.18 6.51,-0.13 -5.81,17.46 5.52,31.84 23.61,32.97 5.38,0.34 9.85,0.22 14.06,-0.51 5.84,-0.52 11.34,-2.51 16.35,-5.49 0.15,2.32 0.34,4.69 0.56,7.09 -9.1,1.72 -17.64,8.87 -20.86,22.93 -1.17,5.11 -1.49,10.05 -0.76,14.53 -0.47,2.29 -0.72,4.76 -0.72,7.43 0,3.91 -0.22,9.18 -0.05,14.09 -3.19,-0.45 -6.47,-0.37 -9.58,0.18 -3.21,-5.02 -5.87,-7.96 -8.78,-10.13 -3.11,-5.72 -8.58,-10.22 -18.1,-11.18 -1.33,-0.13 -2.64,-0.16 -3.92,-0.08 -4.82,-2.49 -10.01,-5.06 -15.25,-6.44 2.17,-23.17 -27.01,-37.64 -43.01,-18.24 -0.57,0.69 -2.85,1.87 -5.43,4.08 -2.53,-1.45 -5.08,-2.65 -7.57,-3.49 -10.4,-3.51 -6.81,-1.2 -14.58,-5.91 -18.97,-11.51 -37.96,5.02 -36.89,22.88 -2.39,11.51 2.78,24.78 18.46,29.66l10.62 1.09c11.33,2.63 4.95,-1.57 9.27,2.5 0.42,1 1,2.83 1.85,5.08l0.14 2.99c0.81,16.15 14.46,21.97 27.23,27.36 3.84,1.62 13.52,2.15 23.7,2.26 0.76,0.9 1.44,1.96 2.02,3.25l1.35 11.09c0,0.01 -0.1,2.17 0.18,5.39 -0.05,2.85 -0.09,5.88 0.06,8.93l0.2 48.98c-1.2,9.47 1.04,15.43 1.04,25.42 0,8.57 -0.89,36.84 1.09,43.2 1.67,5.36 -1.38,30.28 0.72,45.44l-341.62 0 0 -330.98zm457.95 254.15c0.26,2.05 0.06,4.14 0.02,6.21l-0.02 -6.21z"/>
     </clipPath>
 </defs>
 <g id="Layer_x0020_1">
  <metadata id="CorelCorpID_0Corel-Layer"/>
  <g id="_1826478917536">
   <g>
   </g>
   <g style="clip-path:url(#id0)">
    <g>
     <path class="fil0" d="M492.87 80.26l-167 -0.01c-15.01,0 -27.17,9.91 -27.15,22.13l0 115.09c-0,12.23 12.14,22.13 27.15,22.13l167 0.01c14.99,-0.01 27.15,-9.92 27.15,-22.13l0 -115.09c0,-12.23 -12.16,-22.14 -27.15,-22.13zm-13.37 35.97l0 22.27c0,3.28 -4.07,5.93 -9.09,5.93l-122.09 0c-5.01,0 -9.09,-2.65 -9.09,-5.93l0 -22.27c0,-3.28 4.08,-5.94 9.11,-5.95l122.08 0c5.02,0 9.09,2.65 9.07,5.95zm0 0z"/>
    </g>
   </g>
   <path class="fil1" d="M213.1 159.94l196.26 -159.94 195.35 159.21 -196.26 159.95 -195.36 -159.21zm0 0z"/>
   <g style="clip-path:url(#id1)">
    <polygon class="fil2" points="240.58,205.29 577.24,205.29 577.24,479.66 240.58,479.66 "/>
   </g>
   <g style="clip-path:url(#id2)">
    <g>
     <path id="_1" class="fil0" d="M360.34 251.23l98.06 -0.01 0 59.74 -29.92 32.19 29.92 32.19 -29.94 32.18 29.94 32.21 -49.02 36.67 -49.04 -36.68 0 -188.48zm0 0z"/>
    </g>
   </g>
   <path class="fil1" d="M240.58 342.1l167.88 -136.82 168.78 137.55 -167.88 136.82 -168.78 -137.55zm0 0z"/>
   <g>
    <g>
    </g>
    <g style="clip-path:url(#id3)">
     <g>
      <path class="fil3" d="M46.62 486.64l107.93 0c6.63,0 12.45,-5.82 12.45,-12.45l0 -23.25c0,-2.49 0,-4.17 -0.84,-5.82 -10.8,7.47 -18.27,9.15 -29.06,7.47 -8.29,0 -94.62,1.67 -103.77,-0.81 0,10.77 -4.14,34.86 13.29,34.86zm0 0z"/>
     </g>
    </g>
    <path class="fil1" d="M28.97 441.51l140.97 0 0 43.12 -140.97 0 0 -43.12zm0 0z"/>
    <path class="fil3" d="M167 329.75c0.81,0.81 0.81,1.65 0.81,3.3 0,8.31 -6.63,14.94 -14.94,14.94 -9.12,0 -15.78,-6.63 -15.78,-14.94 0,-4.98 2.51,-9.12 5.82,-11.61l24.09 8.31zm0 0z"/>
    <path class="fil3" d="M96.44 305.66c-0.84,0.84 -1.68,1.65 -1.68,3.33 0,2.49 2.49,4.98 5.82,4.98 2.49,0 4.98,-2.49 4.98,-4.98l9.12 2.49c-1.65,6.63 -7.47,11.61 -14.1,11.61 -8.31,0 -14.94,-6.63 -14.94,-14.1 0,-2.49 0.81,-4.98 1.65,-6.66l9.15 3.33zm0 0z"/>
    <path class="fil3" d="M128.81 316.46c-3.33,4.98 -4.98,10.8 -4.98,16.59 0,14.94 13.26,28.23 29.04,28.23 14.94,0 27.39,-11.61 28.23,-26.55l-9.12 -3.33c0,0.84 0,0.84 0,1.65 0,9.96 -9.15,19.11 -19.11,19.11 -10.77,0 -19.92,-9.15 -19.92,-19.11 0,-4.98 1.65,-9.96 4.98,-13.26l-9.12 -3.33zm0 0z"/>
    <path class="fil3" d="M74.01 298.19c-1.65,3.33 -2.49,7.47 -2.49,11.61 0,15.78 13.29,28.23 29.07,28.23 13.29,0 24.9,-9.12 27.39,-21.57l-8.31 -3.33c-1.65,9.15 -9.96,15.78 -19.08,15.78 -10.8,0 -19.92,-8.31 -19.92,-19.11 0,-3.3 0.81,-6.63 2.49,-9.12l-9.15 -2.49zm0 0z"/>
    <g style="clip-path:url(#id4)">
     <polygon class="fil4" points="133.17,80.7 374.6,80.7 374.6,122.79 133.17,122.79 "/>
    </g>
    <g style="clip-path:url(#id5)">
     <g>
      <path id="_1_0" class="fil3" d="M349.63 80.7c96.3,0 193.41,7.47 202.55,22.41 2.49,4.14 4.98,9.12 8.28,14.94l-40.65 0c-12.47,-4.14 -33.21,-8.31 -69.75,-10.8 -30.72,-1.65 -65.58,-3.3 -100.44,-3.3 -34.88,0 -69.74,1.65 -100.46,3.3 -36.52,2.49 -57.27,6.66 -69.72,10.8l-41.51 0c3.33,-5.82 6.65,-10.8 8.31,-14.94 9.12,-14.94 106.25,-22.41 203.39,-22.41zm0 0z"/>
     </g>
    </g>
    <path class="fil1" d="M133.17 80.7l146.6 0c1.66,1.05 3.47,2.02 5.28,2.96 0.24,0.87 0.36,1.77 0.41,2.86 -1.17,3.54 -2.12,7.64 -2.7,11.34 -2.23,7.1 -1.99,17.76 0.44,24.93l-150.03 0 0 -42.09zm241.43 39.59c-0.26,0.79 -0.5,1.62 -0.7,2.5l-36.89 0 0.42 -1.13c12.4,0 18.73,0.73 30.65,-1.24 1.05,-0.17 3.43,-0.18 6.52,-0.13z"/>
    <g>
    </g>
    <g style="clip-path:url(#id6)">
     <g>
      <path class="fil3" d="M693.3 171.18c-4.98,9.96 -23.25,13.29 -34.02,15.78 -29.07,6.63 -42.36,9.12 -40.68,24.9l0.81 3.33 2.49 0.81c0.84,0 38.19,9.98 45.65,44.01 2.49,12.45 4.98,39.02 5.82,65.58l-39.03 0c5.82,-14.1 4.17,-26.55 4.17,-27.39 -0.84,-4.14 -1.68,-6.63 -5.82,-4.98l-9.12 3.33 -112.91 38.19c-0.84,0.81 -0.84,0.81 -0.84,1.65 0,1.65 0,3.33 1.67,6.63 1.65,2.49 14.94,24.09 49.8,24.09 9.15,0 19.92,-1.65 30.72,-4.98 22.41,-6.66 34.86,-19.11 40.68,-31.56l40.68 0c1.65,45.66 1.65,92.99 1.65,93.81 0,7.47 -2.49,19.92 -11.61,20.76 -27.39,2.49 -72.23,0.84 -97.95,0 -14.12,0 -15.78,1.65 -28.23,-8.31 -58.11,5.82 -117.89,9.15 -176,9.15l-8.31 0 0 -39.03 147.77 0c4.98,0 4.98,-7.47 0,-7.47l-147.77 0 0 -7.47 147.77 0c4.98,0 4.98,-7.47 0,-7.47l-147.77 0 0 -15.78 146.12 0 -16.62 -26.55c-34.02,5.79 -83.84,8.28 -132.81,8.28 -49.82,0 -99.63,-2.49 -132.83,-8.28l-16.59 26.55 146.1 0 0 15.78 -148.58 0c-4.98,0 -4.98,7.47 0,7.47l148.58 0 0 7.47 -148.58 0c-4.98,0 -4.98,7.47 0,7.47l148.58 0 0 39.03 -8.31 0c-58.1,0 -118.7,-3.33 -175.97,-9.15 -13.29,9.96 -14.94,8.31 -29.07,8.31 -24.9,0.84 -70.56,2.49 -97.95,0 -9.14,-0.84 -11.64,-13.29 -11.64,-20.76 0,-0.81 0,-48.15 1.68,-93.81l41.49 0c5.82,12.45 17.43,24.9 39.86,31.56 10.78,3.33 21.57,4.98 30.7,4.98 35.7,0 48.17,-21.6 49.82,-24.09 1.65,-3.3 1.65,-4.98 1.65,-6.63 0,-0.84 0,-0.84 -0.82,-1.65l-112.91 -38.19 -9.12 -3.33c-4.17,-1.65 -4.98,0.84 -5.82,4.98 0,0.84 -0.84,13.29 4.14,27.39l-39 0c1.65,-26.55 3.3,-53.13 5.79,-65.58 7.47,-34.02 44.84,-44.01 45.66,-44.01l3.33 -0.81 0 -3.33c1.65,-15.78 -11.61,-18.27 -40.68,-24.9 -10.8,-2.49 -28.23,-5.82 -34.02,-15.78 -4.98,-9.96 0.81,-20.76 13.27,-20.76 15.78,0 32.39,3.33 48.98,3.33 10.8,0 6.63,19.92 6.63,28.23 0,12.45 7.47,19.08 19.1,22.41 14.1,-28.23 28.23,-55.62 43.17,-83.01l34.02 0c-4.14,2.49 -6.63,4.98 -7.47,6.63 -11.61,19.92 -36.51,68.91 -43.98,83.01 -1.67,2.49 0.81,5.82 4.14,5.82l453.25 0c3.33,0 4.98,-3.33 3.33,-5.82 -6.63,-14.1 -31.56,-63.09 -43.17,-83.01 -1.65,-1.65 -3.33,-4.14 -8.31,-6.63l34.05 0c14.94,27.39 29.04,54.78 43.17,83.01 11.61,-3.33 19.92,-9.96 19.92,-22.41 0,-8.31 -4.98,-28.23 5.82,-28.23 17.43,0 34.02,-3.33 49.8,-3.33 12.45,0 17.43,10.8 12.45,20.76zm0 0z"/>
     </g>
    </g>
    <path class="fil1" d="M-0 116.66l281.73 0c0.8,6.14 4.06,13.83 8.79,18.33 17.94,18.87 43.34,8.66 45.75,-10.54 0.44,-0.89 0.83,-1.82 1.16,-2.78 12.4,0 18.72,0.73 30.65,-1.24 1.05,-0.17 3.43,-0.18 6.51,-0.13 -5.81,17.46 5.52,31.84 23.61,32.97 5.38,0.34 9.85,0.22 14.06,-0.51 5.84,-0.52 11.34,-2.51 16.35,-5.49 0.15,2.32 0.34,4.69 0.56,7.09 -9.1,1.72 -17.64,8.87 -20.86,22.93 -1.17,5.11 -1.49,10.05 -0.76,14.53 -0.47,2.29 -0.72,4.76 -0.72,7.43 0,3.91 -0.22,9.18 -0.05,14.09 -3.19,-0.45 -6.47,-0.37 -9.58,0.18 -3.21,-5.02 -5.87,-7.96 -8.78,-10.13 -3.11,-5.72 -8.58,-10.22 -18.1,-11.18 -1.33,-0.13 -2.64,-0.16 -3.92,-0.08 -4.82,-2.49 -10.01,-5.06 -15.25,-6.44 2.17,-23.17 -27.01,-37.64 -43.01,-18.24 -0.57,0.69 -2.85,1.87 -5.43,4.08 -2.53,-1.45 -5.08,-2.65 -7.57,-3.49 -10.4,-3.51 -6.81,-1.2 -14.58,-5.91 -18.97,-11.51 -37.96,5.02 -36.89,22.88 -2.39,11.51 2.78,24.78 18.46,29.66l10.62 1.09c11.33,2.63 4.95,-1.57 9.27,2.5 0.42,1 1,2.83 1.85,5.08l0.14 2.99c0.81,16.15 14.46,21.97 27.23,27.36 3.84,1.62 13.52,2.15 23.7,2.26 0.76,0.9 1.44,1.96 2.02,3.25l1.35 11.09c0,0.01 -0.1,2.17 0.18,5.39 -0.05,2.85 -0.09,5.88 0.06,8.93l0.2 48.98c-1.2,9.47 1.04,15.43 1.04,25.42 0,8.57 -0.89,36.84 1.09,43.2 1.67,5.36 -1.38,30.28 0.72,45.44l-341.62 0 0 -330.98zm457.95 254.15c0.26,2.05 0.06,4.14 0.02,6.21l-0.02 -6.21z"/>
   </g>
  </g>
 </g>
</svg>
